# xmcd
#
# Track frame offsets:
#	150
#	23039
#	39563
#	57402
#	75042
#	89201
#	107146
#	130346
#	149468
#	163420
#	180792
#	195136
#	212718
#	242145
#
# Disc length: 3716 seconds
#
# Revision: 1
# Processed by: cddbd v1.5.2PL0 Copyright (c) Steve Scherf et al.
# Submitted via: audiograbber 1.83.01
#
DISCID=ba0e820e
DTITLE=Wel and Wel - Hello again
DYEAR=1900
DGENRE=Pop
TTITLE0=Wel and Wel - Another day in paradise
TTITLE1=Wel and Wel - Take on me
TTITLE2=Wel and Wel - Hello again
TTITLE3=Wel and Wel - Dood gewoon op straat
TTITLE4=Wel and Wel - Dancing in the street
TTITLE5=Wel and Wel - Words
TTITLE6=Wel and Wel - Radio gaga
TTITLE7=Wel and Wel - Feel
TTITLE8=Wel and Wel - Never tear us apart
TTITLE9=Wel and Wel - Relax
TTITLE10=Wel and Wel - Always a woman
TTITLE11=Wel and Wel - dance the night away
TTITLE12=Wel and Wel - Een simpel woord
TTITLE13=Wel and Wel - Gegevens track
EXTD=
EXTT0=
EXTT1=
EXTT2=
EXTT3=
EXTT4=
EXTT5=
EXTT6=
EXTT7=
EXTT8=
EXTT9=
EXTT10=
EXTT11=
EXTT12=
EXTT13=Gegevens Track
PLAYORDER=
